<svg preserveAspectRatio="none" overflow="visible" style="display: block;" width="20" height="20" viewBox="0 0 20 20" fill="none" xmlns="http://www.w3.org/2000/svg">
<g id="action-interface-video">
<path id="Union" d="M11.126 4.2002C12.4686 4.2002 13.3633 5.42021 13.3633 6.66699V7.34766L16.4736 5.50977L16.6162 5.4375C16.7634 5.37505 16.9226 5.34237 17.084 5.3418L17.2441 5.35156C17.3499 5.36539 17.4534 5.39362 17.5518 5.43457L17.6953 5.50586L17.8271 5.59473C17.9114 5.6599 17.9866 5.73579 18.0508 5.82031L18.1387 5.95312L18.208 6.0957C18.268 6.24234 18.2989 6.39954 18.2988 6.55859V13.3887L18.2881 13.5518C18.2663 13.7128 18.2124 13.8687 18.1289 14.0098C18.0174 14.1981 17.8568 14.354 17.6631 14.459C17.4693 14.5639 17.2501 14.6142 17.0293 14.6035C16.8086 14.5928 16.5956 14.5214 16.4131 14.3984H16.4121L13.3633 12.3389V13.333C13.3633 14.5798 12.4686 15.7998 11.126 15.7998H3.94141C2.59893 15.7996 1.70508 14.5797 1.70508 13.333V6.66699C1.70508 5.42031 2.59893 4.20039 3.94141 4.2002H11.126ZM3.94141 5.7998C3.69694 5.80005 3.30469 6.07309 3.30469 6.66699V13.333C3.30469 13.9269 3.69694 14.2 3.94141 14.2002H11.126C11.3704 14.2002 11.7627 13.9272 11.7627 13.333V6.66699C11.7627 6.07283 11.3704 5.79981 11.126 5.7998H3.94141ZM13.3633 9.20508V10.4082L16.6992 12.6611V7.2334L13.3633 9.20508Z" fill="#F8F8F8"/>
</g>
</svg>
