<svg preserveAspectRatio="none" overflow="visible" style="display: block;" width="20" height="20" viewBox="0 0 20 20" fill="none" xmlns="http://www.w3.org/2000/svg">
<g id="action-edit">
<path id="Union" d="M16.5641 14.2188C16.9955 14.2188 17.3453 14.5686 17.3454 15C17.3454 15.4315 16.9956 15.7812 16.5641 15.7812H9.7243C9.29292 15.7811 8.94305 15.4314 8.94305 15C8.94313 14.5687 9.29297 14.2189 9.7243 14.2188H16.5641ZM13.318 2.63574C13.8667 2.63578 14.3946 2.84058 14.7995 3.20703L14.8796 3.28223L15.0016 3.40527C15.4154 3.81917 15.648 4.3806 15.6481 4.96582C15.6481 5.5144 15.4441 6.04241 15.0778 6.44727L15.0016 6.52734L6.73797 14.79C6.6379 14.8901 6.51292 14.9618 6.37566 14.9961L3.52215 15.709C3.25604 15.7754 2.97488 15.6969 2.78094 15.5029C2.58709 15.3089 2.50839 15.0278 2.57488 14.7617L3.28875 11.9092L3.32097 11.8086C3.36011 11.7107 3.41878 11.621 3.49383 11.5459L11.7575 3.28223L11.8366 3.20703C12.2414 2.84055 12.7694 2.63585 13.318 2.63574ZM4.75164 12.4971L4.40691 13.877L5.78582 13.5322L12.0095 7.30859L10.9743 6.27344L4.75164 12.4971ZM13.318 4.19824C13.1471 4.19836 12.9819 4.26587 12.861 4.38672L11.946 5.30078L12.9811 6.33594L13.8971 5.42188C14.0179 5.30096 14.0856 5.13671 14.0856 4.96582C14.0855 4.79492 14.018 4.63065 13.8971 4.50977L13.7741 4.38672C13.6532 4.26612 13.4888 4.19829 13.318 4.19824Z" fill="#F9FAFA"/>
</g>
</svg>
